<svg xmlns="http://www.w3.org/2000/svg" width="50" height="50" viewBox="0 0 50 50"><defs><style>.a{fill:#6f6f6f;}</style></defs><path class="a" d="M44.643,2.25H5.357A5.359,5.359,0,0,0,0,7.607V46.893A5.359,5.359,0,0,0,5.357,52.25H44.643A5.359,5.359,0,0,0,50,46.893V7.607A5.359,5.359,0,0,0,44.643,2.25ZM17.857,39.75a1.785,1.785,0,0,1-1.786,1.786H12.5a1.785,1.785,0,0,1-1.786-1.786V25.464A1.785,1.785,0,0,1,12.5,23.679h3.571a1.785,1.785,0,0,1,1.786,1.786Zm10.714,0a1.785,1.785,0,0,1-1.786,1.786H23.214a1.785,1.785,0,0,1-1.786-1.786v-25a1.785,1.785,0,0,1,1.786-1.786h3.571a1.785,1.785,0,0,1,1.786,1.786Zm10.714,0A1.785,1.785,0,0,1,37.5,41.536H33.929a1.785,1.785,0,0,1-1.786-1.786V32.607a1.785,1.785,0,0,1,1.786-1.786H37.5a1.785,1.785,0,0,1,1.786,1.786Z" transform="translate(0 -2.25)"/></svg>